<svg width="200" height="60" viewBox="0 0 221 64" fill="none" xmlns="http://www.w3.org/2000/svg">
<g clip-path="url(#clip0_3183_990)">
<path d="M24.1723 19.07C24.4286 19.2387 24.6308 19.4808 24.7538 19.7662C24.8769 20.0516 24.9154 20.3677 24.8645 20.6753L23.7476 27.404C23.658 27.9434 23.7057 28.4974 23.8861 29.0125L26.7016 37.0551C28.0705 37.3322 29.2838 37.6921 30.2281 38.1333C30.7974 38.3993 31.3543 38.7321 31.7898 39.1621C32.2269 39.5937 32.6641 40.2499 32.6641 41.1114C32.6641 42.462 31.6327 43.2933 30.9218 43.7233C30.1083 44.2154 29.0334 44.604 27.8418 44.9082C25.4338 45.5245 22.1889 45.8892 18.6641 45.8892C15.1392 45.8892 11.8943 45.5245 9.48628 44.9082C8.29473 44.604 7.21984 44.2154 6.40628 43.7233C5.6954 43.2933 4.66406 42.462 4.66406 41.1114C4.66406 40.2514 5.09962 39.5937 5.53828 39.1621C5.97384 38.7321 6.53073 38.3977 7.10006 38.1333C8.04584 37.6921 9.25762 37.3322 10.6281 37.0535L14.4547 26.1188C14.9004 24.8448 15.7307 23.7493 16.8254 22.9909L22.4596 19.0891C22.7118 18.9144 23.0085 18.8193 23.3129 18.8157C23.6174 18.812 23.9162 18.9014 24.1723 19.07ZM29.2076 22.6867C29.4721 22.1246 29.5607 22.0513 29.7334 22.3555L29.8376 22.5593L29.8983 22.6867C30.5664 24.1113 31.5896 25.3303 32.8647 26.2207L33.2163 26.4548C33.6254 26.7096 33.6954 26.7829 33.3376 27.025L33.2163 27.103C31.9016 27.9294 30.8231 29.0962 30.0896 30.4857L29.7334 31.2007C29.5623 31.5049 29.4721 31.4317 29.2076 30.8695C28.5395 29.4449 27.5163 28.226 26.2412 27.3355L25.6858 26.9692C25.4696 26.81 25.4836 26.7256 25.7683 26.5329L25.8896 26.4532C27.3261 25.5501 28.478 24.2425 29.2076 22.6867ZM11.8165 18.2816L11.9238 18.4775C12.4123 19.4012 13.1496 20.1912 14.0643 20.7788L14.4158 20.9874C14.7036 21.1483 14.7472 21.2072 14.5947 21.3139L14.4158 21.4206C13.4821 21.9324 12.6914 22.6795 12.1183 23.5913L11.8056 24.1392C11.6858 24.3239 11.6221 24.308 11.5132 24.1264L11.4043 23.9322C10.8967 22.9888 10.1593 22.196 9.26384 21.6309L8.91228 21.4206C8.62451 21.2598 8.58095 21.2009 8.7334 21.0942L8.91228 20.9874C9.84598 20.4757 10.6368 19.7286 11.2098 18.8167L11.4043 18.4775C11.6096 18.0905 11.6765 18.0491 11.8165 18.2816Z" fill="url(#paint0_linear_3183_990)"/>
</g>
<path d="M44.2526 25.7214H46.1693V41.0547H44.2526V25.7214ZM55.1904 26.9991V41.0547H53.2737V25.7214H56.4682L65.4026 39.138L74.3371 25.7214H77.3918V41.0547H75.4751V27.2088L66.3709 41.0547H64.4343L55.1904 26.9991ZM99.5101 37.5408H87.3712L85.4545 41.0547H83.2184L92.1629 25.7214H94.7184L103.663 41.0547H101.427L99.5101 37.5408ZM98.5518 35.9436L93.4407 26.9991L88.3295 35.9436H98.5518ZM126.111 30.513C126.111 29.7144 126.024 29.0822 125.851 28.6163C125.678 28.1505 125.392 27.7977 124.993 27.5582C124.593 27.3186 124.068 27.1655 123.415 27.099C122.763 27.0324 121.958 26.9991 121 26.9991H115.868C115.017 26.9991 114.298 27.0258 113.712 27.079C113.133 27.1256 112.654 27.2254 112.275 27.3785C111.895 27.5315 111.603 27.7512 111.396 28.0373C111.19 28.3235 111.04 28.7028 110.947 29.1753C110.854 29.6479 110.801 30.2302 110.787 30.9223C110.774 31.6078 110.767 32.4297 110.767 33.388C110.767 34.3464 110.774 35.1716 110.787 35.8637C110.807 36.5492 110.864 37.1282 110.957 37.6007C111.05 38.0732 111.197 38.4525 111.396 38.7387C111.603 39.0249 111.895 39.2445 112.275 39.3976C112.654 39.5506 113.133 39.6538 113.712 39.707C114.298 39.7536 115.017 39.7769 115.868 39.7769H121.01C121.755 39.7769 122.397 39.7569 122.936 39.717C123.475 39.6771 123.934 39.6039 124.314 39.4974C124.693 39.3909 124.999 39.2445 125.232 39.0582C125.465 38.8718 125.645 38.6389 125.771 38.3594C125.904 38.0732 125.994 37.7338 126.041 37.3411C126.087 36.9418 126.111 36.476 126.111 35.9436V34.9852H118.424V33.388H128.027V35.9436C128.027 36.5825 127.987 37.1615 127.908 37.6806C127.828 38.193 127.685 38.6522 127.478 39.0582C127.279 39.4575 127.009 39.8035 126.67 40.0964C126.33 40.3892 125.901 40.6321 125.382 40.8251C124.863 41.0114 124.244 41.1479 123.525 41.2344C122.806 41.3275 121.968 41.3741 121.01 41.3741H115.868C114.697 41.3741 113.709 41.3009 112.904 41.1545C112.105 41.0148 111.446 40.8018 110.927 40.5156C110.408 40.2228 110.005 39.8568 109.719 39.4175C109.44 38.9783 109.233 38.4625 109.1 37.8702C108.974 37.2779 108.901 36.6091 108.881 35.8637C108.861 35.1183 108.851 34.2931 108.851 33.388C108.851 32.4829 108.861 31.6577 108.881 30.9123C108.901 30.167 108.974 29.4981 109.1 28.9058C109.233 28.3135 109.44 27.7977 109.719 27.3585C110.005 26.9193 110.408 26.5566 110.927 26.2704C111.446 25.9776 112.105 25.7613 112.904 25.6215C113.709 25.4751 114.697 25.4019 115.868 25.4019H121C121.958 25.4019 122.796 25.4485 123.515 25.5417C124.234 25.6282 124.853 25.7646 125.372 25.951C125.891 26.1306 126.32 26.3602 126.66 26.6398C127.006 26.9193 127.279 27.2487 127.478 27.628C127.685 28.0074 127.828 28.4366 127.908 28.9158C127.987 29.395 128.027 29.9274 128.027 30.513H126.111ZM134.503 25.7214H136.42V41.0547H134.503V25.7214ZM145.441 41.0547H143.524V25.7214H146.888L160.944 39.138V25.7214H162.86V41.0547H160.305L145.441 27.3186V41.0547ZM169.975 41.0547V25.7214H185.308V27.3186H171.891V32.4297H184.669V34.0269H171.891V39.4575H185.308V41.0547H169.975ZM206.149 37.5408H194.01L192.093 41.0547H189.857L198.801 25.7214H201.357L210.301 41.0547H208.065L206.149 37.5408ZM205.19 35.9436L200.079 26.9991L194.968 35.9436H205.19ZM216.128 25.7214H218.045V41.0547H216.128V25.7214Z" fill="url(#paint1_linear_3183_990)"/>
<defs>
<linearGradient id="paint0_linear_3183_990" x1="19.1165" y1="18.1387" x2="19.1165" y2="45.8892" gradientUnits="userSpaceOnUse">
<stop stop-color="#D6BBFB"/>
<stop offset="0.984375" stop-color="#3371EB"/>
</linearGradient>
<linearGradient id="paint1_linear_3183_990" x1="42.3359" y1="31.5547" x2="220.336" y2="31.5547" gradientUnits="userSpaceOnUse">
<stop stop-color="#FAF9FF"/>
<stop offset="1" stop-color="#DAD7FF"/>
</linearGradient>
<clipPath id="clip0_3183_990">
<rect width="37.3333" height="38.2222" fill="white" transform="translate(0 12.4453)"/>
</clipPath>
</defs>
</svg>
